M48
; DRILL file {KiCad (6.0.0)} date Fri Jan 21 19:36:20 2022
; FORMAT={-:-/ absolute / metric / decimal}
; #@! TF.CreationDate,2022-01-21T19:36:20+00:00
; #@! TF.GenerationSoftware,Kicad,Pcbnew,(6.0.0)
; #@! TF.FileFunction,Plated,1,2,PTH
FMAT,2
METRIC
; #@! TA.AperFunction,Plated,PTH,ViaDrill
T1C0.300
; #@! TA.AperFunction,Plated,PTH,ViaDrill
T2C0.400
; #@! TA.AperFunction,Plated,PTH,ViaDrill
T3C0.600
; #@! TA.AperFunction,Plated,PTH,ComponentDrill
T4C0.800
; #@! TA.AperFunction,Plated,PTH,ComponentDrill
T5C0.900
; #@! TA.AperFunction,Plated,PTH,ComponentDrill
T6C1.000
; #@! TA.AperFunction,Plated,PTH,ComponentDrill
T7C1.200
; #@! TA.AperFunction,Plated,PTH,ComponentDrill
T8C1.300
; #@! TA.AperFunction,Plated,PTH,ComponentDrill
T9C2.000
%
G90
G05
T1
X137.35Y-145.05
X138.0Y-136.4
X139.0Y-136.4
X140.45Y-140.1
X141.8Y-135.7
X142.5Y-144.3
X142.8Y-146.0
X142.9Y-135.5
X142.9Y-136.5
X142.9Y-137.5
X143.4Y-139.2
X143.5Y-143.0
X144.0Y-141.0
X144.0Y-142.0
X144.4Y-139.2
X144.6Y-143.0
X144.6Y-143.8
X144.6Y-145.8
X145.8Y-147.3
X147.2Y-142.25
X147.55Y-140.95
X147.976Y-141.876
X149.0Y-143.2
X149.3Y-139.0
X149.8Y-143.2
X156.8Y-144.5
X160.1Y-143.6
T2
X134.8Y-134.8
X135.8Y-134.8
X136.8Y-134.8
X139.2Y-144.9
X140.2Y-144.9
X151.7Y-141.7
X152.7Y-141.7
X153.7Y-141.7
X156.5Y-141.7
X157.6Y-141.7
X158.7Y-141.7
X176.5Y-134.9
X178.0Y-134.9
X179.5Y-134.9
T3
X162.2Y-128.6
X163.8Y-128.6
X165.0Y-127.4
X167.5Y-126.6
T4
X127.762Y-140.97
X127.762Y-144.47
T5
X161.9Y-146.4
X164.44Y-146.4
T6
X107.0Y-134.0
X158.2Y-134.0
X164.0Y-140.0
X166.54Y-140.0
X169.08Y-140.0
X192.0Y-134.0
T7
X113.96Y-128.96
X113.96Y-131.5
X113.96Y-134.04
X119.04Y-128.96
X119.04Y-131.5
X119.04Y-134.04
T8
X113.5Y-145.0
X118.5Y-145.0
X176.0Y-145.0
X181.0Y-145.0
X186.0Y-145.0
T9
X114.0Y-115.0
X186.0Y-115.0
T0
M30
