G04 #@! TF.GenerationSoftware,KiCad,Pcbnew,(6.0.0)*
G04 #@! TF.CreationDate,2022-01-21T19:36:15+00:00*
G04 #@! TF.ProjectId,MaxPower,4d617850-6f77-4657-922e-6b696361645f,rev?*
G04 #@! TF.SameCoordinates,Original*
G04 #@! TF.FileFunction,Legend,Bot*
G04 #@! TF.FilePolarity,Positive*
%FSLAX46Y46*%
G04 Gerber Fmt 4.6, Leading zero omitted, Abs format (unit mm)*
G04 Created by KiCad (PCBNEW (6.0.0)) date 2022-01-21 19:36:15*
%MOMM*%
%LPD*%
G01*
G04 APERTURE LIST*
G04 Aperture macros list*
%AMRoundRect*
0 Rectangle with rounded corners*
0 $1 Rounding radius*
0 $2 $3 $4 $5 $6 $7 $8 $9 X,Y pos of 4 corners*
0 Add a 4 corners polygon primitive as box body*
4,1,4,$2,$3,$4,$5,$6,$7,$8,$9,$2,$3,0*
0 Add four circle primitives for the rounded corners*
1,1,$1+$1,$2,$3*
1,1,$1+$1,$4,$5*
1,1,$1+$1,$6,$7*
1,1,$1+$1,$8,$9*
0 Add four rect primitives between the rounded corners*
20,1,$1+$1,$2,$3,$4,$5,0*
20,1,$1+$1,$4,$5,$6,$7,0*
20,1,$1+$1,$6,$7,$8,$9,0*
20,1,$1+$1,$8,$9,$2,$3,0*%
G04 Aperture macros list end*
%ADD10C,0.300000*%
%ADD11RoundRect,0.050000X-1.300000X-1.300000X1.300000X-1.300000X1.300000X1.300000X-1.300000X1.300000X0*%
%ADD12C,2.700000*%
%ADD13O,2.300000X2.200000*%
%ADD14C,2.200000*%
%ADD15RoundRect,0.050000X-0.850000X-0.850000X0.850000X-0.850000X0.850000X0.850000X-0.850000X0.850000X0*%
%ADD16C,3.300000*%
%ADD17RoundRect,0.050000X-0.800000X0.800000X-0.800000X-0.800000X0.800000X-0.800000X0.800000X0.800000X0*%
%ADD18C,1.700000*%
%ADD19RoundRect,0.050000X-1.750000X-1.750000X1.750000X-1.750000X1.750000X1.750000X-1.750000X1.750000X0*%
%ADD20C,3.600000*%
%ADD21RoundRect,0.050000X0.850000X-0.850000X0.850000X0.850000X-0.850000X0.850000X-0.850000X-0.850000X0*%
%ADD22O,1.800000X1.800000*%
%ADD23RoundRect,0.050000X-0.900000X-0.900000X0.900000X-0.900000X0.900000X0.900000X-0.900000X0.900000X0*%
%ADD24C,1.900000*%
G04 APERTURE END LIST*
D10*
X164095238Y-112474761D02*
X164095238Y-110474761D01*
X163428571Y-111903333D01*
X162761904Y-110474761D01*
X162761904Y-112474761D01*
X160952380Y-112474761D02*
X160952380Y-111427142D01*
X161047619Y-111236666D01*
X161238095Y-111141428D01*
X161619047Y-111141428D01*
X161809523Y-111236666D01*
X160952380Y-112379523D02*
X161142857Y-112474761D01*
X161619047Y-112474761D01*
X161809523Y-112379523D01*
X161904761Y-112189047D01*
X161904761Y-111998571D01*
X161809523Y-111808095D01*
X161619047Y-111712857D01*
X161142857Y-111712857D01*
X160952380Y-111617619D01*
X160190476Y-112474761D02*
X159142857Y-111141428D01*
X160190476Y-111141428D02*
X159142857Y-112474761D01*
X156857142Y-112474761D02*
X156857142Y-110474761D01*
X156095238Y-110474761D01*
X155904761Y-110570000D01*
X155809523Y-110665238D01*
X155714285Y-110855714D01*
X155714285Y-111141428D01*
X155809523Y-111331904D01*
X155904761Y-111427142D01*
X156095238Y-111522380D01*
X156857142Y-111522380D01*
X154571428Y-112474761D02*
X154761904Y-112379523D01*
X154857142Y-112284285D01*
X154952380Y-112093809D01*
X154952380Y-111522380D01*
X154857142Y-111331904D01*
X154761904Y-111236666D01*
X154571428Y-111141428D01*
X154285714Y-111141428D01*
X154095238Y-111236666D01*
X154000000Y-111331904D01*
X153904761Y-111522380D01*
X153904761Y-112093809D01*
X154000000Y-112284285D01*
X154095238Y-112379523D01*
X154285714Y-112474761D01*
X154571428Y-112474761D01*
X153238095Y-111141428D02*
X152857142Y-112474761D01*
X152476190Y-111522380D01*
X152095238Y-112474761D01*
X151714285Y-111141428D01*
X150190476Y-112379523D02*
X150380952Y-112474761D01*
X150761904Y-112474761D01*
X150952380Y-112379523D01*
X151047619Y-112189047D01*
X151047619Y-111427142D01*
X150952380Y-111236666D01*
X150761904Y-111141428D01*
X150380952Y-111141428D01*
X150190476Y-111236666D01*
X150095238Y-111427142D01*
X150095238Y-111617619D01*
X151047619Y-111808095D01*
X149238095Y-112474761D02*
X149238095Y-111141428D01*
X149238095Y-111522380D02*
X149142857Y-111331904D01*
X149047619Y-111236666D01*
X148857142Y-111141428D01*
X148666666Y-111141428D01*
X145333333Y-112474761D02*
X146000000Y-111522380D01*
X146476190Y-112474761D02*
X146476190Y-110474761D01*
X145714285Y-110474761D01*
X145523809Y-110570000D01*
X145428571Y-110665238D01*
X145333333Y-110855714D01*
X145333333Y-111141428D01*
X145428571Y-111331904D01*
X145523809Y-111427142D01*
X145714285Y-111522380D01*
X146476190Y-111522380D01*
X143714285Y-112379523D02*
X143904761Y-112474761D01*
X144285714Y-112474761D01*
X144476190Y-112379523D01*
X144571428Y-112189047D01*
X144571428Y-111427142D01*
X144476190Y-111236666D01*
X144285714Y-111141428D01*
X143904761Y-111141428D01*
X143714285Y-111236666D01*
X143619047Y-111427142D01*
X143619047Y-111617619D01*
X144571428Y-111808095D01*
X142952380Y-111141428D02*
X142476190Y-112474761D01*
X142000000Y-111141428D01*
X139333333Y-110474761D02*
X139142857Y-110474761D01*
X138952380Y-110570000D01*
X138857142Y-110665238D01*
X138761904Y-110855714D01*
X138666666Y-111236666D01*
X138666666Y-111712857D01*
X138761904Y-112093809D01*
X138857142Y-112284285D01*
X138952380Y-112379523D01*
X139142857Y-112474761D01*
X139333333Y-112474761D01*
X139523809Y-112379523D01*
X139619047Y-112284285D01*
X139714285Y-112093809D01*
X139809523Y-111712857D01*
X139809523Y-111236666D01*
X139714285Y-110855714D01*
X139619047Y-110665238D01*
X139523809Y-110570000D01*
X139333333Y-110474761D01*
X137809523Y-112284285D02*
X137714285Y-112379523D01*
X137809523Y-112474761D01*
X137904761Y-112379523D01*
X137809523Y-112284285D01*
X137809523Y-112474761D01*
X135809523Y-112474761D02*
X136952380Y-112474761D01*
X136380952Y-112474761D02*
X136380952Y-110474761D01*
X136571428Y-110760476D01*
X136761904Y-110950952D01*
X136952380Y-111046190D01*
X172857142Y-115504285D02*
X172952380Y-115599523D01*
X173238095Y-115694761D01*
X173428571Y-115694761D01*
X173714285Y-115599523D01*
X173904761Y-115409047D01*
X174000000Y-115218571D01*
X174095238Y-114837619D01*
X174095238Y-114551904D01*
X174000000Y-114170952D01*
X173904761Y-113980476D01*
X173714285Y-113790000D01*
X173428571Y-113694761D01*
X173238095Y-113694761D01*
X172952380Y-113790000D01*
X172857142Y-113885238D01*
X171714285Y-115694761D02*
X171904761Y-115599523D01*
X172000000Y-115504285D01*
X172095238Y-115313809D01*
X172095238Y-114742380D01*
X172000000Y-114551904D01*
X171904761Y-114456666D01*
X171714285Y-114361428D01*
X171428571Y-114361428D01*
X171238095Y-114456666D01*
X171142857Y-114551904D01*
X171047619Y-114742380D01*
X171047619Y-115313809D01*
X171142857Y-115504285D01*
X171238095Y-115599523D01*
X171428571Y-115694761D01*
X171714285Y-115694761D01*
X170190476Y-114361428D02*
X170190476Y-116361428D01*
X170190476Y-114456666D02*
X170000000Y-114361428D01*
X169619047Y-114361428D01*
X169428571Y-114456666D01*
X169333333Y-114551904D01*
X169238095Y-114742380D01*
X169238095Y-115313809D01*
X169333333Y-115504285D01*
X169428571Y-115599523D01*
X169619047Y-115694761D01*
X170000000Y-115694761D01*
X170190476Y-115599523D01*
X168571428Y-114361428D02*
X168095238Y-115694761D01*
X167619047Y-114361428D02*
X168095238Y-115694761D01*
X168285714Y-116170952D01*
X168380952Y-116266190D01*
X168571428Y-116361428D01*
X166857142Y-115694761D02*
X166857142Y-114361428D01*
X166857142Y-114742380D02*
X166761904Y-114551904D01*
X166666666Y-114456666D01*
X166476190Y-114361428D01*
X166285714Y-114361428D01*
X165619047Y-115694761D02*
X165619047Y-114361428D01*
X165619047Y-113694761D02*
X165714285Y-113790000D01*
X165619047Y-113885238D01*
X165523809Y-113790000D01*
X165619047Y-113694761D01*
X165619047Y-113885238D01*
X163809523Y-114361428D02*
X163809523Y-115980476D01*
X163904761Y-116170952D01*
X164000000Y-116266190D01*
X164190476Y-116361428D01*
X164476190Y-116361428D01*
X164666666Y-116266190D01*
X163809523Y-115599523D02*
X164000000Y-115694761D01*
X164380952Y-115694761D01*
X164571428Y-115599523D01*
X164666666Y-115504285D01*
X164761904Y-115313809D01*
X164761904Y-114742380D01*
X164666666Y-114551904D01*
X164571428Y-114456666D01*
X164380952Y-114361428D01*
X164000000Y-114361428D01*
X163809523Y-114456666D01*
X162857142Y-115694761D02*
X162857142Y-113694761D01*
X162000000Y-115694761D02*
X162000000Y-114647142D01*
X162095238Y-114456666D01*
X162285714Y-114361428D01*
X162571428Y-114361428D01*
X162761904Y-114456666D01*
X162857142Y-114551904D01*
X161333333Y-114361428D02*
X160571428Y-114361428D01*
X161047619Y-113694761D02*
X161047619Y-115409047D01*
X160952380Y-115599523D01*
X160761904Y-115694761D01*
X160571428Y-115694761D01*
X158476190Y-113885238D02*
X158380952Y-113790000D01*
X158190476Y-113694761D01*
X157714285Y-113694761D01*
X157523809Y-113790000D01*
X157428571Y-113885238D01*
X157333333Y-114075714D01*
X157333333Y-114266190D01*
X157428571Y-114551904D01*
X158571428Y-115694761D01*
X157333333Y-115694761D01*
X156095238Y-113694761D02*
X155904761Y-113694761D01*
X155714285Y-113790000D01*
X155619047Y-113885238D01*
X155523809Y-114075714D01*
X155428571Y-114456666D01*
X155428571Y-114932857D01*
X155523809Y-115313809D01*
X155619047Y-115504285D01*
X155714285Y-115599523D01*
X155904761Y-115694761D01*
X156095238Y-115694761D01*
X156285714Y-115599523D01*
X156380952Y-115504285D01*
X156476190Y-115313809D01*
X156571428Y-114932857D01*
X156571428Y-114456666D01*
X156476190Y-114075714D01*
X156380952Y-113885238D01*
X156285714Y-113790000D01*
X156095238Y-113694761D01*
X154666666Y-113885238D02*
X154571428Y-113790000D01*
X154380952Y-113694761D01*
X153904761Y-113694761D01*
X153714285Y-113790000D01*
X153619047Y-113885238D01*
X153523809Y-114075714D01*
X153523809Y-114266190D01*
X153619047Y-114551904D01*
X154761904Y-115694761D01*
X153523809Y-115694761D01*
X152761904Y-113885238D02*
X152666666Y-113790000D01*
X152476190Y-113694761D01*
X152000000Y-113694761D01*
X151809523Y-113790000D01*
X151714285Y-113885238D01*
X151619047Y-114075714D01*
X151619047Y-114266190D01*
X151714285Y-114551904D01*
X152857142Y-115694761D01*
X151619047Y-115694761D01*
X147809523Y-115123333D02*
X146857142Y-115123333D01*
X148000000Y-115694761D02*
X147333333Y-113694761D01*
X146666666Y-115694761D01*
X146000000Y-114361428D02*
X146000000Y-115694761D01*
X146000000Y-114551904D02*
X145904761Y-114456666D01*
X145714285Y-114361428D01*
X145428571Y-114361428D01*
X145238095Y-114456666D01*
X145142857Y-114647142D01*
X145142857Y-115694761D01*
X143333333Y-115694761D02*
X143333333Y-113694761D01*
X143333333Y-115599523D02*
X143523809Y-115694761D01*
X143904761Y-115694761D01*
X144095238Y-115599523D01*
X144190476Y-115504285D01*
X144285714Y-115313809D01*
X144285714Y-114742380D01*
X144190476Y-114551904D01*
X144095238Y-114456666D01*
X143904761Y-114361428D01*
X143523809Y-114361428D01*
X143333333Y-114456666D01*
X142380952Y-115694761D02*
X142380952Y-114361428D01*
X142380952Y-114742380D02*
X142285714Y-114551904D01*
X142190476Y-114456666D01*
X142000000Y-114361428D01*
X141809523Y-114361428D01*
X140380952Y-115599523D02*
X140571428Y-115694761D01*
X140952380Y-115694761D01*
X141142857Y-115599523D01*
X141238095Y-115409047D01*
X141238095Y-114647142D01*
X141142857Y-114456666D01*
X140952380Y-114361428D01*
X140571428Y-114361428D01*
X140380952Y-114456666D01*
X140285714Y-114647142D01*
X140285714Y-114837619D01*
X141238095Y-115028095D01*
X139619047Y-114361428D02*
X139238095Y-115694761D01*
X138857142Y-114742380D01*
X138476190Y-115694761D01*
X138095238Y-114361428D01*
X135142857Y-114647142D02*
X135809523Y-114647142D01*
X135809523Y-115694761D02*
X135809523Y-113694761D01*
X134857142Y-113694761D01*
X134095238Y-115694761D02*
X134095238Y-114361428D01*
X134095238Y-113694761D02*
X134190476Y-113790000D01*
X134095238Y-113885238D01*
X134000000Y-113790000D01*
X134095238Y-113694761D01*
X134095238Y-113885238D01*
X133238095Y-115599523D02*
X133047619Y-115694761D01*
X132666666Y-115694761D01*
X132476190Y-115599523D01*
X132380952Y-115409047D01*
X132380952Y-115313809D01*
X132476190Y-115123333D01*
X132666666Y-115028095D01*
X132952380Y-115028095D01*
X133142857Y-114932857D01*
X133238095Y-114742380D01*
X133238095Y-114647142D01*
X133142857Y-114456666D01*
X132952380Y-114361428D01*
X132666666Y-114361428D01*
X132476190Y-114456666D01*
X130666666Y-115599523D02*
X130857142Y-115694761D01*
X131238095Y-115694761D01*
X131428571Y-115599523D01*
X131523809Y-115504285D01*
X131619047Y-115313809D01*
X131619047Y-114742380D01*
X131523809Y-114551904D01*
X131428571Y-114456666D01*
X131238095Y-114361428D01*
X130857142Y-114361428D01*
X130666666Y-114456666D01*
X129809523Y-115694761D02*
X129809523Y-113694761D01*
X128952380Y-115694761D02*
X128952380Y-114647142D01*
X129047619Y-114456666D01*
X129238095Y-114361428D01*
X129523809Y-114361428D01*
X129714285Y-114456666D01*
X129809523Y-114551904D01*
X127238095Y-115599523D02*
X127428571Y-115694761D01*
X127809523Y-115694761D01*
X128000000Y-115599523D01*
X128095238Y-115409047D01*
X128095238Y-114647142D01*
X128000000Y-114456666D01*
X127809523Y-114361428D01*
X127428571Y-114361428D01*
X127238095Y-114456666D01*
X127142857Y-114647142D01*
X127142857Y-114837619D01*
X128095238Y-115028095D01*
X126285714Y-115694761D02*
X126285714Y-114361428D01*
X126285714Y-114742380D02*
X126190476Y-114551904D01*
X126095238Y-114456666D01*
X125904761Y-114361428D01*
X125714285Y-114361428D01*
X157238095Y-117105238D02*
X157142857Y-117010000D01*
X156952380Y-116914761D01*
X156476190Y-116914761D01*
X156285714Y-117010000D01*
X156190476Y-117105238D01*
X156095238Y-117295714D01*
X156095238Y-117486190D01*
X156190476Y-117771904D01*
X157333333Y-118914761D01*
X156095238Y-118914761D01*
X154857142Y-116914761D02*
X154666666Y-116914761D01*
X154476190Y-117010000D01*
X154380952Y-117105238D01*
X154285714Y-117295714D01*
X154190476Y-117676666D01*
X154190476Y-118152857D01*
X154285714Y-118533809D01*
X154380952Y-118724285D01*
X154476190Y-118819523D01*
X154666666Y-118914761D01*
X154857142Y-118914761D01*
X155047619Y-118819523D01*
X155142857Y-118724285D01*
X155238095Y-118533809D01*
X155333333Y-118152857D01*
X155333333Y-117676666D01*
X155238095Y-117295714D01*
X155142857Y-117105238D01*
X155047619Y-117010000D01*
X154857142Y-116914761D01*
X152952380Y-116914761D02*
X152761904Y-116914761D01*
X152571428Y-117010000D01*
X152476190Y-117105238D01*
X152380952Y-117295714D01*
X152285714Y-117676666D01*
X152285714Y-118152857D01*
X152380952Y-118533809D01*
X152476190Y-118724285D01*
X152571428Y-118819523D01*
X152761904Y-118914761D01*
X152952380Y-118914761D01*
X153142857Y-118819523D01*
X153238095Y-118724285D01*
X153333333Y-118533809D01*
X153428571Y-118152857D01*
X153428571Y-117676666D01*
X153333333Y-117295714D01*
X153238095Y-117105238D01*
X153142857Y-117010000D01*
X152952380Y-116914761D01*
X150380952Y-118914761D02*
X151523809Y-118914761D01*
X150952380Y-118914761D02*
X150952380Y-116914761D01*
X151142857Y-117200476D01*
X151333333Y-117390952D01*
X151523809Y-117486190D01*
X149619047Y-117105238D02*
X149523809Y-117010000D01*
X149333333Y-116914761D01*
X148857142Y-116914761D01*
X148666666Y-117010000D01*
X148571428Y-117105238D01*
X148476190Y-117295714D01*
X148476190Y-117486190D01*
X148571428Y-117771904D01*
X149714285Y-118914761D01*
X148476190Y-118914761D01*
X147238095Y-116914761D02*
X147047619Y-116914761D01*
X146857142Y-117010000D01*
X146761904Y-117105238D01*
X146666666Y-117295714D01*
X146571428Y-117676666D01*
X146571428Y-118152857D01*
X146666666Y-118533809D01*
X146761904Y-118724285D01*
X146857142Y-118819523D01*
X147047619Y-118914761D01*
X147238095Y-118914761D01*
X147428571Y-118819523D01*
X147523809Y-118724285D01*
X147619047Y-118533809D01*
X147714285Y-118152857D01*
X147714285Y-117676666D01*
X147619047Y-117295714D01*
X147523809Y-117105238D01*
X147428571Y-117010000D01*
X147238095Y-116914761D01*
X145809523Y-117105238D02*
X145714285Y-117010000D01*
X145523809Y-116914761D01*
X145047619Y-116914761D01*
X144857142Y-117010000D01*
X144761904Y-117105238D01*
X144666666Y-117295714D01*
X144666666Y-117486190D01*
X144761904Y-117771904D01*
X145904761Y-118914761D01*
X144666666Y-118914761D01*
X143904761Y-117105238D02*
X143809523Y-117010000D01*
X143619047Y-116914761D01*
X143142857Y-116914761D01*
X142952380Y-117010000D01*
X142857142Y-117105238D01*
X142761904Y-117295714D01*
X142761904Y-117486190D01*
X142857142Y-117771904D01*
X144000000Y-118914761D01*
X142761904Y-118914761D01*
X150516857Y-130959428D02*
X151242571Y-130959428D01*
X151242571Y-129435428D01*
X149718571Y-129435428D02*
X149428285Y-129435428D01*
X149283142Y-129508000D01*
X149138000Y-129653142D01*
X149065428Y-129943428D01*
X149065428Y-130451428D01*
X149138000Y-130741714D01*
X149283142Y-130886857D01*
X149428285Y-130959428D01*
X149718571Y-130959428D01*
X149863714Y-130886857D01*
X150008857Y-130741714D01*
X150081428Y-130451428D01*
X150081428Y-129943428D01*
X150008857Y-129653142D01*
X149863714Y-129508000D01*
X149718571Y-129435428D01*
X147614000Y-129508000D02*
X147759142Y-129435428D01*
X147976857Y-129435428D01*
X148194571Y-129508000D01*
X148339714Y-129653142D01*
X148412285Y-129798285D01*
X148484857Y-130088571D01*
X148484857Y-130306285D01*
X148412285Y-130596571D01*
X148339714Y-130741714D01*
X148194571Y-130886857D01*
X147976857Y-130959428D01*
X147831714Y-130959428D01*
X147614000Y-130886857D01*
X147541428Y-130814285D01*
X147541428Y-130306285D01*
X147831714Y-130306285D01*
X146598000Y-129435428D02*
X146307714Y-129435428D01*
X146162571Y-129508000D01*
X146017428Y-129653142D01*
X145944857Y-129943428D01*
X145944857Y-130451428D01*
X146017428Y-130741714D01*
X146162571Y-130886857D01*
X146307714Y-130959428D01*
X146598000Y-130959428D01*
X146743142Y-130886857D01*
X146888285Y-130741714D01*
X146960857Y-130451428D01*
X146960857Y-129943428D01*
X146888285Y-129653142D01*
X146743142Y-129508000D01*
X146598000Y-129435428D01*
G36*
X153831582Y-131351057D02*
G01*
X153509009Y-132043351D01*
X153057966Y-132666232D01*
X152486652Y-133202516D01*
X151803265Y-133635019D01*
X151016000Y-133946555D01*
X150995700Y-133952324D01*
X150591468Y-134019509D01*
X150091326Y-134038152D01*
X149556842Y-134011202D01*
X149049584Y-133941608D01*
X148631122Y-133832320D01*
X148307907Y-133698250D01*
X147616846Y-133285914D01*
X147014170Y-132745591D01*
X146903847Y-132600740D01*
X147868541Y-132600740D01*
X148094631Y-132778583D01*
X148223209Y-132863533D01*
X148495871Y-133006166D01*
X148800422Y-133135904D01*
X148983067Y-133198699D01*
X149714457Y-133344895D01*
X150441596Y-133330848D01*
X151142202Y-133161303D01*
X151793997Y-132841004D01*
X152374699Y-132374698D01*
X152509813Y-132231941D01*
X152942194Y-131628690D01*
X153224101Y-130962640D01*
X153351564Y-130252761D01*
X153320617Y-129518023D01*
X153127289Y-128777394D01*
X153040926Y-128569481D01*
X152896736Y-128284574D01*
X152765194Y-128086293D01*
X152582333Y-127874241D01*
X152247651Y-128217454D01*
X151912968Y-128560667D01*
X152624667Y-128560667D01*
X152624667Y-131185333D01*
X152116667Y-131185333D01*
X152109393Y-130402167D01*
X152102120Y-129619000D01*
X151878157Y-130402167D01*
X151654194Y-131185333D01*
X151048642Y-131185333D01*
X150893489Y-130571500D01*
X150836864Y-130355216D01*
X150743698Y-130050721D01*
X150674666Y-129912586D01*
X150627797Y-129940283D01*
X150601121Y-130133285D01*
X150592667Y-130491067D01*
X150592667Y-131185333D01*
X150338667Y-131185333D01*
X150231447Y-131182382D01*
X150130593Y-131145526D01*
X150091321Y-131029633D01*
X150084667Y-130789575D01*
X150084667Y-130393816D01*
X149873000Y-130592667D01*
X149865266Y-130600064D01*
X149720973Y-130795732D01*
X149661333Y-130988425D01*
X149620466Y-131141486D01*
X149468964Y-131185333D01*
X149438938Y-131188904D01*
X149248432Y-131287650D01*
X148959897Y-131522159D01*
X148572568Y-131893037D01*
X147868541Y-132600740D01*
X146903847Y-132600740D01*
X146521901Y-132099254D01*
X146162064Y-131368878D01*
X146145128Y-131321520D01*
X146031591Y-130838370D01*
X145976515Y-130265627D01*
X145977973Y-130007268D01*
X146658979Y-130007268D01*
X146709918Y-130643086D01*
X146860015Y-131210660D01*
X146956279Y-131433582D01*
X147103613Y-131717097D01*
X147234807Y-131912319D01*
X147417667Y-132122984D01*
X148285500Y-131250546D01*
X148413317Y-131120913D01*
X148704985Y-130815745D01*
X148939805Y-130556770D01*
X149096386Y-130368069D01*
X149153333Y-130273721D01*
X149153319Y-130272497D01*
X149075692Y-130198457D01*
X148878167Y-130170758D01*
X148819598Y-130172584D01*
X148685182Y-130201912D01*
X148562244Y-130289798D01*
X148418212Y-130465297D01*
X148220514Y-130757468D01*
X147838029Y-131342752D01*
X147634072Y-131188907D01*
X147430115Y-131035063D01*
X147707322Y-130603074D01*
X147984528Y-130171086D01*
X147764597Y-129909713D01*
X147669356Y-129779188D01*
X147546214Y-129444281D01*
X147564251Y-129299271D01*
X148064530Y-129299271D01*
X148108674Y-129477930D01*
X148151890Y-129525677D01*
X148341920Y-129604871D01*
X148675264Y-129644392D01*
X149153333Y-129669784D01*
X149153333Y-129068667D01*
X148698034Y-129068667D01*
X148423996Y-129087432D01*
X148173609Y-129166347D01*
X148064530Y-129299271D01*
X147564251Y-129299271D01*
X147587316Y-129113837D01*
X147792154Y-128808154D01*
X147812059Y-128788333D01*
X147932174Y-128680278D01*
X148054228Y-128613270D01*
X148220068Y-128577522D01*
X148471539Y-128563249D01*
X148850487Y-128560667D01*
X149661333Y-128560667D01*
X149661333Y-129860184D01*
X149873000Y-129661333D01*
X149878777Y-129655876D01*
X149993156Y-129516382D01*
X151152056Y-129516382D01*
X151198434Y-129724833D01*
X151226479Y-129824507D01*
X151296962Y-130010772D01*
X151354672Y-130084667D01*
X151403887Y-130014432D01*
X151476022Y-129820875D01*
X151553743Y-129547243D01*
X151622598Y-129280199D01*
X151695275Y-129013267D01*
X151744742Y-128848743D01*
X151739446Y-128803852D01*
X151641581Y-128857713D01*
X151453507Y-129026333D01*
X151431483Y-129047825D01*
X151246963Y-129237078D01*
X151161026Y-129373530D01*
X151152056Y-129516382D01*
X149993156Y-129516382D01*
X150007462Y-129498935D01*
X150068941Y-129306119D01*
X150084667Y-129011575D01*
X150084667Y-128560667D01*
X150531438Y-128560667D01*
X150598848Y-128560502D01*
X150790978Y-128551120D01*
X150942951Y-128510878D01*
X151094437Y-128417258D01*
X151285105Y-128247738D01*
X151554625Y-127979799D01*
X152131042Y-127398931D01*
X151905161Y-127221253D01*
X151776333Y-127129483D01*
X151287850Y-126890716D01*
X150710154Y-126732479D01*
X150091967Y-126661529D01*
X149482011Y-126684623D01*
X148929011Y-126808518D01*
X148276190Y-127113995D01*
X147685034Y-127563726D01*
X147206501Y-128129232D01*
X146858525Y-128793323D01*
X146854746Y-128803058D01*
X146707241Y-129371246D01*
X146658979Y-130007268D01*
X145977973Y-130007268D01*
X145979902Y-129665418D01*
X146041752Y-129099874D01*
X146162064Y-128631121D01*
X146196709Y-128541673D01*
X146581987Y-127804486D01*
X147109460Y-127154952D01*
X147771127Y-126603155D01*
X147945397Y-126491139D01*
X148627636Y-126174391D01*
X149373564Y-125993009D01*
X150149968Y-125949684D01*
X150923633Y-126047106D01*
X151661347Y-126287966D01*
X151996420Y-126463296D01*
X152523064Y-126838535D01*
X153011706Y-127298598D01*
X153093141Y-127398931D01*
X153420173Y-127801853D01*
X153706290Y-128306667D01*
X153946519Y-129029550D01*
X154058535Y-129826972D01*
X154036117Y-130252761D01*
X154017490Y-130606536D01*
X153831582Y-131351057D01*
G37*
%LPC*%
D11*
X113500000Y-145000000D03*
D12*
X118500000Y-145000000D03*
D13*
X113960000Y-128960000D03*
D14*
X113960000Y-131500000D03*
X113960000Y-134040000D03*
X119040000Y-134040000D03*
X119040000Y-131500000D03*
X119040000Y-128960000D03*
D15*
X158200000Y-134000000D03*
D16*
X195000000Y-105000000D03*
X105000000Y-105000000D03*
D17*
X127762000Y-140970000D03*
D18*
X127762000Y-144470000D03*
D16*
X178255000Y-115000000D03*
X122645000Y-115000000D03*
D19*
X114000000Y-115000000D03*
D20*
X186000000Y-115000000D03*
D21*
X164000000Y-140000000D03*
D22*
X166540000Y-140000000D03*
X169080000Y-140000000D03*
D23*
X161900000Y-146400000D03*
D24*
X164440000Y-146400000D03*
D16*
X195000000Y-145000000D03*
X105000000Y-145000000D03*
D15*
X107000000Y-134000000D03*
D11*
X176000000Y-145000000D03*
D12*
X181000000Y-145000000D03*
X186000000Y-145000000D03*
D15*
X192000000Y-134000000D03*
M02*
