G04 #@! TF.GenerationSoftware,KiCad,Pcbnew,(6.0.0)*
G04 #@! TF.CreationDate,2022-01-21T19:36:15+00:00*
G04 #@! TF.ProjectId,MaxPower,4d617850-6f77-4657-922e-6b696361645f,rev?*
G04 #@! TF.SameCoordinates,Original*
G04 #@! TF.FileFunction,Paste,Top*
G04 #@! TF.FilePolarity,Positive*
%FSLAX46Y46*%
G04 Gerber Fmt 4.6, Leading zero omitted, Abs format (unit mm)*
G04 Created by KiCad (PCBNEW (6.0.0)) date 2022-01-21 19:36:15*
%MOMM*%
%LPD*%
G01*
G04 APERTURE LIST*
G04 Aperture macros list*
%AMRoundRect*
0 Rectangle with rounded corners*
0 $1 Rounding radius*
0 $2 $3 $4 $5 $6 $7 $8 $9 X,Y pos of 4 corners*
0 Add a 4 corners polygon primitive as box body*
4,1,4,$2,$3,$4,$5,$6,$7,$8,$9,$2,$3,0*
0 Add four circle primitives for the rounded corners*
1,1,$1+$1,$2,$3*
1,1,$1+$1,$4,$5*
1,1,$1+$1,$6,$7*
1,1,$1+$1,$8,$9*
0 Add four rect primitives between the rounded corners*
20,1,$1+$1,$2,$3,$4,$5,0*
20,1,$1+$1,$4,$5,$6,$7,0*
20,1,$1+$1,$6,$7,$8,$9,0*
20,1,$1+$1,$8,$9,$2,$3,0*%
G04 Aperture macros list end*
%ADD10R,2.000000X1.500000*%
%ADD11R,2.000000X3.800000*%
%ADD12RoundRect,0.225000X0.225000X0.250000X-0.225000X0.250000X-0.225000X-0.250000X0.225000X-0.250000X0*%
%ADD13RoundRect,0.250000X-0.475000X0.250000X-0.475000X-0.250000X0.475000X-0.250000X0.475000X0.250000X0*%
%ADD14RoundRect,0.225000X-0.250000X0.225000X-0.250000X-0.225000X0.250000X-0.225000X0.250000X0.225000X0*%
%ADD15RoundRect,0.250000X-0.425000X0.450000X-0.425000X-0.450000X0.425000X-0.450000X0.425000X0.450000X0*%
%ADD16RoundRect,0.250000X-1.100000X0.325000X-1.100000X-0.325000X1.100000X-0.325000X1.100000X0.325000X0*%
%ADD17RoundRect,0.200000X-0.275000X0.200000X-0.275000X-0.200000X0.275000X-0.200000X0.275000X0.200000X0*%
%ADD18RoundRect,0.200000X0.275000X-0.200000X0.275000X0.200000X-0.275000X0.200000X-0.275000X-0.200000X0*%
%ADD19RoundRect,0.172500X-0.172500X-0.422500X0.172500X-0.422500X0.172500X0.422500X-0.172500X0.422500X0*%
%ADD20RoundRect,0.075000X-0.650000X-0.075000X0.650000X-0.075000X0.650000X0.075000X-0.650000X0.075000X0*%
%ADD21RoundRect,0.250000X-0.450000X0.262500X-0.450000X-0.262500X0.450000X-0.262500X0.450000X0.262500X0*%
%ADD22RoundRect,0.250000X0.475000X-0.250000X0.475000X0.250000X-0.475000X0.250000X-0.475000X-0.250000X0*%
%ADD23RoundRect,0.250000X1.100000X-0.325000X1.100000X0.325000X-1.100000X0.325000X-1.100000X-0.325000X0*%
%ADD24R,0.900000X1.200000*%
%ADD25R,0.980000X3.400000*%
%ADD26RoundRect,0.200000X0.200000X0.275000X-0.200000X0.275000X-0.200000X-0.275000X0.200000X-0.275000X0*%
%ADD27RoundRect,0.225000X-0.225000X-0.250000X0.225000X-0.250000X0.225000X0.250000X-0.225000X0.250000X0*%
G04 APERTURE END LIST*
D10*
X167500000Y-128700000D03*
X167500000Y-131000000D03*
D11*
X173800000Y-131000000D03*
D10*
X167500000Y-133300000D03*
D12*
X150475000Y-148100000D03*
X148925000Y-148100000D03*
D13*
X139600000Y-141850000D03*
X139600000Y-143750000D03*
D14*
X137500000Y-142625000D03*
X137500000Y-144175000D03*
X140700000Y-135725000D03*
X140700000Y-137275000D03*
D15*
X176500000Y-130650000D03*
X176500000Y-133350000D03*
D16*
X152600000Y-139975000D03*
X152600000Y-142925000D03*
D17*
X146700000Y-144775000D03*
X146700000Y-146425000D03*
D13*
X149300000Y-140250000D03*
X149300000Y-142150000D03*
D15*
X179500000Y-130650000D03*
X179500000Y-133350000D03*
D14*
X141750000Y-144225000D03*
X141750000Y-145775000D03*
D18*
X150700000Y-146425000D03*
X150700000Y-144775000D03*
D19*
X144415000Y-140290000D03*
X143585000Y-140290000D03*
X144415000Y-141710000D03*
X143585000Y-141710000D03*
D20*
X141850000Y-139250000D03*
X141850000Y-139750000D03*
X141850000Y-140250000D03*
X141850000Y-140750000D03*
X141850000Y-141250000D03*
X141850000Y-141750000D03*
X141850000Y-142250000D03*
X141850000Y-142750000D03*
X146150000Y-142750000D03*
X146150000Y-142250000D03*
X146150000Y-141750000D03*
X146150000Y-141250000D03*
X146150000Y-140750000D03*
X146150000Y-140250000D03*
X146150000Y-139750000D03*
X146150000Y-139250000D03*
D21*
X168900000Y-144587500D03*
X168900000Y-146412500D03*
D22*
X138400000Y-139950000D03*
X138400000Y-138050000D03*
D16*
X157500000Y-139975000D03*
X157500000Y-142925000D03*
D23*
X135400000Y-139192000D03*
X135400000Y-136242000D03*
D24*
X150650000Y-135500000D03*
X147350000Y-135500000D03*
D23*
X163000000Y-133275000D03*
X163000000Y-130325000D03*
D17*
X153200000Y-144775000D03*
X153200000Y-146425000D03*
D25*
X142915000Y-136250000D03*
X145285000Y-136250000D03*
D17*
X135600000Y-144175000D03*
X135600000Y-145825000D03*
D18*
X148700000Y-146425000D03*
X148700000Y-144775000D03*
D26*
X152825000Y-137800000D03*
X151175000Y-137800000D03*
D27*
X147325000Y-137750000D03*
X148875000Y-137750000D03*
D17*
X135600000Y-140975000D03*
X135600000Y-142625000D03*
M02*
